<svg width="65" height="80" viewBox="0 0 65 80" fill="none" xmlns="http://www.w3.org/2000/svg">
<path d="M63.8305 16.3014L32.8318 0.468353C32.3719 0.232988 31.8207 0.236281 31.3644 0.476587L1.22344 16.3096C0.729077 16.5697 0.422485 17.0666 0.422485 17.6073V38.2893C0.44057 55.2904 10.9489 70.6711 27.1996 77.4822L31.3833 79.2299C31.7743 79.3933 32.2196 79.3941 32.6114 79.2315L37.3255 77.2799C53.8778 70.6166 64.6461 55.0873 64.6478 37.879V17.6073C64.6478 17.0608 64.3335 16.5581 63.8305 16.3014ZM61.5613 37.879C61.5579 53.9011 51.5293 68.358 36.1172 74.5583L36.1069 74.5633L32.0016 76.2622L28.4345 74.7705C13.3076 68.4306 3.52542 54.1149 3.50818 38.2893V18.4831L32.1162 3.45414L61.5613 18.4939V37.879Z" fill="#9C9C9C"/>
<path d="M20.434 36.4178C19.8933 35.8291 18.9424 35.7596 18.3093 36.2621C17.6762 36.764 17.6013 37.6488 18.142 38.2366L26.101 46.9013C26.6324 47.4797 27.5631 47.5586 28.1971 47.0787L46.7336 33.0589C47.3794 32.5712 47.4769 31.6887 46.9514 31.0884C46.4268 30.4888 45.4774 30.3974 44.8316 30.8859L27.4371 44.0412L20.434 36.4178Z" fill="#9C9C9C"/>
</svg>
