<svg width="80" height="81" viewBox="0 0 80 81" fill="none" xmlns="http://www.w3.org/2000/svg">
<path d="M40.9622 79.3333V44.6667C40.9622 43.9304 40.3651 43.3334 39.6284 43.3334H31.6254V36.6667C31.6254 36.6485 31.6157 36.6329 31.6151 36.6147C31.6144 36.597 31.6229 36.5814 31.6215 36.5639L28.9539 1.89719C28.9005 1.20252 28.3209 0.666687 27.6239 0.666687H14.2855C13.5887 0.666687 13.009 1.20252 12.9556 1.89719L10.2878 36.5639C10.2867 36.5814 10.2952 36.597 10.2945 36.6147C10.2938 36.6329 10.284 36.6485 10.284 36.6667V43.3334H2.28096C1.54442 43.3334 0.947144 43.9304 0.947144 44.6667V79.3333C0.947144 80.0697 1.54442 80.6667 2.28096 80.6667H39.6284C40.3651 80.6667 40.9622 80.0697 40.9622 79.3333ZM15.5209 3.33335H26.3884L28.8509 35.3334H13.0584L15.5209 3.33335ZM12.9516 38H28.9577V43.3334H12.9516V38ZM38.2946 78H3.61477V46H38.2946V78Z" fill="#9C9C9C"/>
<path d="M9.44983 53.5098V71.1568C9.44983 71.8065 10.0305 72.3333 10.7465 72.3333H31.4953C32.2113 72.3333 32.792 71.8065 32.792 71.1568V53.5098C32.792 52.8601 32.2113 52.3333 31.4953 52.3333H10.7465C10.0305 52.3333 9.44983 52.8601 9.44983 53.5098ZM12.0434 54.6863H30.1984V69.9803H12.0434V54.6863Z" fill="#9C9C9C"/>
<path d="M49.7981 80.3333H73.8073C74.5438 80.3333 75.1411 79.7363 75.1411 79V74.0508C78.3949 70.1438 79.7626 65.0026 78.8802 59.9961C77.9976 54.9896 74.9541 50.625 70.5605 48.0658C70.6394 48.0215 70.7129 47.9693 70.7806 47.9101C71.0327 47.64 71.1618 47.2773 71.1363 46.9088L68.8497 13.5755C68.8021 12.8763 68.2205 12.3333 67.519 12.3333H56.0864C55.3849 12.3333 54.8033 12.8763 54.7557 13.5755L52.4691 46.9088C52.4436 47.2773 52.5727 47.64 52.8246 47.9101C52.8925 47.9693 52.966 48.0215 53.0449 48.0658C48.6513 50.625 45.6079 54.9896 44.7253 59.9961C43.8428 65.0026 45.2106 70.1438 48.4643 74.0508V79C48.4643 79.7363 49.0616 80.3333 49.7981 80.3333ZM55.2279 45.6666L57.3317 15H66.2737L68.3775 45.6666H55.2279ZM47.1305 63C47.109 56.5378 51.3209 50.8235 57.5015 48.929C63.6823 47.0345 70.375 49.4068 73.9805 54.7701C77.586 60.1342 77.2559 67.2246 73.1664 72.2291L56.4589 72.3333C55.7224 72.336 55.1271 72.9343 55.1296 73.6705C55.1316 74.4075 55.7308 75.0026 56.4674 75H56.4759L72.4735 74.9003V77.6666H51.132V73.5586C51.132 73.2343 51.0135 72.9205 50.7992 72.6771C48.4389 70.0051 47.1343 66.5645 47.1305 63Z" fill="#9C9C9C"/>
<path d="M53.2165 68.668H70.7232C71.4138 68.668 71.9736 68.0875 71.9736 67.3717V58.2977C71.9736 57.5817 71.4138 57.0013 70.7232 57.0013H53.2165C52.5259 57.0013 51.9661 57.5817 51.9661 58.2977V67.3717C51.9661 68.0875 52.5259 68.668 53.2165 68.668ZM54.467 59.5938H69.4727V66.0753H54.467V59.5938Z" fill="#9C9C9C"/>
</svg>
