<svg width="90" height="90" viewBox="0 0 90 90" fill="none" xmlns="http://www.w3.org/2000/svg">
<path fill-rule="evenodd" clip-rule="evenodd" d="M36.7959 0C36.8691 0 36.6312 0.365995 36.2653 0.836561C35.9177 1.2897 35.3138 2.28311 34.9296 3.04996C34.5271 3.81681 34.0513 5.07165 33.8501 5.8385C33.6488 6.60534 33.4841 7.42448 33.4841 7.66847C33.4658 8.01704 33.2096 8.27847 32.2399 8.88846C31.5629 9.32417 30.3187 10.335 27.9217 12.6356L28.0681 11.8513C28.1413 11.4156 28.4157 10.4744 28.6719 9.75988C28.9281 9.04531 29.3306 8.10418 29.5502 7.66847C29.788 7.23276 30.3553 6.32649 30.831 5.66421C31.325 5.00194 32.0569 4.06081 32.4595 3.60767C32.8803 3.1371 33.9964 2.14369 34.9479 1.37684C35.8994 0.627421 36.741 0 36.7959 0V0ZM54.9469 0.714562C55.1664 0.836561 56.0996 1.63826 57.0145 2.50968C58.0391 3.46824 59.1553 4.77537 59.8871 5.8385C60.5459 6.79706 61.3326 8.12161 61.6254 8.80132C61.9182 9.48102 62.3024 10.5093 62.4671 11.1193C62.6317 11.7119 62.7598 12.2696 62.7598 12.3741C62.7598 12.4787 62.0462 11.8687 61.1497 11.0496C60.2714 10.213 59.0638 9.2196 57.3987 8.10418L57.0328 6.44849C56.8498 5.54221 56.4838 4.28737 56.2277 3.65995C55.9715 3.03253 55.4775 2.10883 55.1298 1.60341C54.8005 1.11541 54.526 0.662277 54.5443 0.609992C54.5443 0.557707 54.7273 0.609992 54.9469 0.714562ZM32.2948 14.6572C32.3863 14.6398 32.9718 14.727 33.5756 14.8315C34.1794 14.9361 35.1675 15.2672 35.7713 15.5635C36.3751 15.8772 37.4363 16.6266 38.1133 17.2541C38.8086 17.8815 39.7418 18.8923 40.1626 19.5198C40.6018 20.1472 41.2605 21.3149 41.6264 22.134C41.9924 22.9531 42.4864 24.3648 42.7243 25.2711C42.9621 26.1774 43.2549 27.6936 43.3464 28.6348C43.4562 29.5585 43.5476 31.005 43.5476 31.8416C43.5476 32.6956 43.4562 34.0899 43.3647 34.9438C43.2549 35.7978 42.9987 37.105 42.7974 37.8195C42.5962 38.5341 42.157 39.5972 41.846 40.1723C41.5166 40.7475 40.7299 41.7409 40.0711 42.3683C39.4124 43.0132 38.4427 43.7452 37.8755 44.0066C37.3265 44.268 36.4117 44.6514 35.8628 44.8257C35.2589 45.0349 34.1428 45.2091 33.0267 45.2614C31.7825 45.3137 30.7944 45.2614 29.9161 45.0871C29.2025 44.9477 28.0498 44.5643 27.3545 44.2506C26.4396 43.8323 25.6529 43.2572 24.5733 42.2637C23.3657 41.1309 22.9448 40.5906 22.341 39.3881C21.9385 38.5689 21.4262 37.2792 21.2066 36.5124C20.9687 35.5887 20.8041 34.2816 20.7309 32.6782C20.6577 31.127 20.6943 29.6282 20.8407 28.5825C20.9687 27.6762 21.2432 26.3342 21.4445 25.6197C21.6457 24.9051 22.0483 23.7723 22.341 23.0926C22.6338 22.4129 23.2925 21.2103 23.8231 20.3912C24.3537 19.572 25.2686 18.4392 25.8907 17.8641C26.4945 17.2889 27.3911 16.5395 27.9034 16.2084C28.3975 15.8772 29.2208 15.4589 29.7332 15.2847C30.2272 15.1104 30.9774 14.9012 31.3799 14.8141C31.7825 14.7444 32.185 14.6747 32.2948 14.6572ZM57.911 14.8141C58.6063 14.8141 59.5944 14.9361 60.1067 15.0755C60.6007 15.2149 61.5156 15.6507 62.1194 16.0167C62.7232 16.4001 63.6747 17.1669 64.2419 17.7246C64.7908 18.2823 65.5044 19.084 65.8155 19.5198C66.1265 19.9555 66.6389 20.8094 66.9682 21.4369C67.2976 22.0643 67.8282 23.354 68.1758 24.3125C68.5052 25.2711 68.8711 26.7177 68.9992 27.5368C69.1273 28.4256 69.1822 30.0639 69.1273 31.6325C69.0541 33.4799 68.9077 34.7347 68.6333 35.9024C68.3954 36.8087 67.8648 38.2727 67.4257 39.1266C67.0048 39.9806 66.2729 41.1309 65.8338 41.6538C65.3946 42.1766 64.4066 43.0132 63.6564 43.4837C62.8879 43.9892 61.6986 44.5469 60.9301 44.7909C59.7774 45.1569 59.2101 45.2266 57.3621 45.2266C55.5873 45.2266 54.892 45.1394 53.7941 44.8083C53.0439 44.5991 51.9644 44.146 51.4155 43.8323C50.8666 43.5186 49.9334 42.7866 49.3479 42.194C48.7624 41.6015 48.0671 40.6429 47.7743 40.0329C47.4816 39.4404 47.0607 38.3249 46.8229 37.5581C46.5118 36.4427 46.402 35.5364 46.3471 33.0267C46.2922 31.127 46.3288 29.3668 46.4569 28.5825C46.5667 27.8679 46.8412 26.6131 47.0607 25.794C47.262 24.9748 47.6645 23.8071 47.9207 23.1797C48.1769 22.5523 48.8173 21.4194 49.3113 20.6526C49.8053 19.8857 50.7202 18.7529 51.3423 18.1255C51.9644 17.4981 52.8976 16.6964 53.4465 16.3304C53.9954 15.9818 54.9286 15.4938 55.5324 15.2498C56.3375 14.9361 56.9779 14.8141 57.911 14.8141ZM81.6244 21.4369C81.7159 21.5763 82.0635 22.1689 82.3746 22.744C82.6856 23.3191 83.2162 24.4171 83.5639 25.184C83.9115 25.9508 84.3873 27.2928 84.6251 28.1468C84.863 29.0008 85.1192 30.4299 85.3204 32.8524L84.3324 31.9984C83.7835 31.5279 83.326 31.127 83.3077 31.127C83.2894 31.1096 83.1431 30.1336 82.9784 28.9311C82.8137 27.7285 82.4112 25.5674 82.0635 24.1383C81.7159 22.6917 81.4231 21.4543 81.4231 21.3497C81.4231 21.2452 81.5146 21.2974 81.6244 21.4369ZM8.54485 21.524C8.58145 21.6286 8.41677 22.3606 8.16061 23.1797C7.92274 23.9988 7.61169 25.0968 7.5019 25.6197C7.39212 26.1425 7.15425 27.5542 6.58704 30.9353L5.63558 31.8416C5.10495 32.347 4.64752 32.7304 4.64752 32.713C4.62922 32.6956 4.73901 31.859 4.88539 30.8482C5.03176 29.7502 5.43431 28.1816 5.89174 26.9268C6.29428 25.7765 7.04447 24.0511 7.5568 23.0926C8.05082 22.134 8.50826 21.4194 8.54485 21.524ZM11.2529 34.0376C12.3507 34.0899 13.229 34.2293 13.906 34.4733C14.4549 34.665 15.4429 35.2053 16.0834 35.6758C16.7238 36.129 17.6935 37.0178 18.2424 37.6452C18.8097 38.2901 19.7062 39.6843 20.31 40.8695C20.9321 42.0546 21.6274 43.7452 21.9385 44.7909C22.2313 45.8017 22.5789 47.2483 22.707 48.0151C22.8351 48.7819 22.9265 50.3854 22.9265 51.5879C22.9083 52.8776 22.7985 54.3067 22.6155 55.0736C22.4508 55.7881 22.1032 56.8164 21.8287 57.3393C21.536 57.897 20.8041 58.8032 20.0539 59.5178C19.2122 60.3195 18.3339 60.9469 17.5654 61.3129C16.9067 61.6092 15.8821 61.9752 15.2783 62.1321C14.6745 62.2715 13.5217 62.3935 12.7166 62.3935C11.9116 62.3935 10.7222 62.2715 10.0635 62.1146C9.40483 61.9752 8.25209 61.5744 7.5019 61.2258C6.40406 60.7029 5.74536 60.2149 4.20838 58.7335C2.59822 57.2173 2.14079 56.6596 1.50038 55.4221C0.988056 54.4462 0.585514 53.3656 0.365947 52.285C0.128081 51.2393 0 49.9148 0 48.7122C0 47.6491 0.128081 46.0806 0.292757 45.2266C0.439136 44.3726 0.695298 43.2223 0.859974 42.6995C1.00635 42.1766 1.3906 41.2355 1.68335 40.6081C1.97611 39.9806 2.57992 39.0046 3.00076 38.4295C3.4399 37.8544 4.24498 36.983 4.7756 36.495C5.32452 36.007 6.1662 35.397 6.67852 35.1181C7.17255 34.8393 8.05082 34.4733 8.59974 34.299C9.34993 34.0724 10.0269 34.0027 11.2529 34.0376ZM79.9593 34.0376C81.295 34.0724 81.6976 34.1596 82.7954 34.665C83.6188 35.0484 84.4788 35.641 85.1924 36.3207C85.8145 36.9132 86.7293 38.0112 87.2599 38.7781C87.7906 39.5449 88.4676 40.7998 88.7786 41.5666C89.0897 42.3335 89.4922 43.7103 89.6935 44.6166C90.0046 45.9934 90.0411 46.708 89.968 48.7994C89.8948 50.6642 89.7667 51.6751 89.4739 52.6336C89.2544 53.3482 88.7603 54.5333 88.3578 55.2479C87.9735 55.9624 87.1685 57.0953 86.583 57.775C85.9974 58.4547 84.9545 59.4132 84.2409 59.9187C83.5456 60.4241 82.4843 61.0689 81.8805 61.3478C81.2767 61.6441 80.3253 61.9926 79.7763 62.1321C79.2274 62.2715 78.1113 62.3935 77.3062 62.3935C76.5011 62.3935 75.3484 62.2715 74.7446 62.1146C74.1408 61.9752 73.0795 61.5569 72.3842 61.2084C71.7072 60.8598 70.6094 60.0929 69.9507 59.5178C69.0907 58.751 68.5967 58.141 68.1392 57.2521C67.7916 56.5724 67.3708 55.5267 67.2061 54.8993C66.9499 54.0279 66.8767 53.1042 66.8767 50.8908C66.8767 49.1479 66.9865 47.5968 67.1329 46.9694C67.261 46.3943 67.572 45.2963 67.8282 44.5294C68.0844 43.7626 68.615 42.5077 69.0175 41.7409C69.4201 40.974 70.0971 39.8761 70.5179 39.3009C70.9204 38.7258 71.5425 37.9415 71.9085 37.5755C72.2561 37.2095 73.0063 36.5647 73.5553 36.1638C74.1042 35.763 75.0007 35.2227 75.5131 34.9613C76.0437 34.7173 76.922 34.3861 77.4343 34.2467C78.0381 34.0899 78.9896 34.0027 79.9593 34.0376ZM44.4076 48.4682C45.1395 48.4682 46.6216 48.5728 47.7011 48.7122C48.799 48.8517 50.2079 49.1305 50.8666 49.3397C51.5253 49.5314 52.678 50.0019 53.4282 50.3854C54.1784 50.7514 55.3494 51.4833 56.0264 52.0236C56.7217 52.5465 57.6549 53.4353 58.1306 53.993C58.6246 54.5682 59.7957 56.0321 60.7471 57.2696C61.6986 58.4895 62.522 59.5875 62.5769 59.6921C62.6317 59.7967 64.2053 61.3652 66.0716 63.1778C67.938 65.0077 69.9141 66.9597 70.463 67.5349C71.0119 68.11 71.8353 69.086 72.311 69.7134C72.7685 70.3408 73.537 71.5085 74.0127 72.3277C74.4884 73.1468 75.1105 74.5062 75.4216 75.3776C75.8607 76.5976 76.0071 77.3644 76.0803 78.7761C76.1169 79.8393 76.0803 81.007 75.9522 81.5647C75.8424 82.0875 75.5131 82.9938 75.2386 83.5689C74.9459 84.1441 74.3603 85.0678 73.9029 85.6429C73.4638 86.2006 72.6038 87.0372 72 87.4903C71.3962 87.9609 70.3715 88.5709 69.7128 88.8671C69.0541 89.1634 67.9929 89.5294 67.3342 89.7037C66.4559 89.9303 65.4495 90 63.4917 90C61.1863 90 60.3812 89.9303 57.3621 89.3551C55.4409 89.0066 52.861 88.5534 51.5985 88.3443C49.97 88.0829 48.1586 87.9609 45.2859 87.8912C42.7791 87.8214 40.3639 87.8737 38.8818 87.9957C37.5644 88.1177 35.0211 88.3966 33.2096 88.6406C31.3982 88.8671 29.1659 89.1112 28.2694 89.1634C27.3545 89.2331 26.1286 89.2331 25.5248 89.1634C24.921 89.0937 24.4635 89.0066 24.5184 88.9717C24.5733 88.9194 26.1652 88.6406 28.0864 88.3443C29.9893 88.0654 33.1182 87.6123 35.0394 87.3683C37.7657 87.0372 39.6137 86.9152 43.5476 86.8455C47.4633 86.7757 49.2198 86.828 51.507 87.0372C53.1171 87.194 55.2213 87.4555 56.1728 87.5949C57.1243 87.7343 59.1919 87.9086 60.7471 87.9609C63.0526 88.048 63.8577 88.0132 65.047 87.7692C65.8521 87.5949 67.2793 87.1069 68.249 86.6712C69.6396 86.0263 70.2434 85.608 71.2681 84.6321C72.1098 83.8304 72.7685 82.9938 73.1527 82.2618C73.4821 81.6344 73.8297 80.6933 73.9395 80.1704C74.0676 79.6127 74.1042 78.445 74.0493 77.3819C73.9761 76.0399 73.8297 75.2033 73.4638 74.2448C73.2076 73.5302 72.6953 72.4322 72.3293 71.8048C71.9817 71.1774 71.2132 70.0968 70.646 69.3823C70.0788 68.6677 68.4137 66.9771 66.9316 65.6352C65.4495 64.2757 63.693 62.5503 63.016 61.7835C62.3573 61.0167 61.4973 59.971 61.1314 59.4655C60.7654 58.9601 60.4544 58.5941 60.4178 58.6464C60.3995 58.6987 60.6739 59.2215 61.0033 59.8315C61.3509 60.4241 62.156 61.5569 62.7964 62.3412C63.4368 63.1255 64.2785 64.1189 64.6811 64.5546C65.0836 65.0077 65.3398 65.426 65.2483 65.4957C65.1751 65.5654 64.6079 65.1123 64.004 64.4849C63.4002 63.8575 62.3573 62.5678 61.6803 61.6092C61.0033 60.6507 60.2348 59.361 59.9786 58.7335C59.7225 58.1061 59.2467 57.165 58.9174 56.6421C58.588 56.1193 57.911 55.1782 57.3804 54.5682C56.8681 53.9756 55.9166 53.0868 55.2579 52.6162C54.5992 52.1456 53.4831 51.5008 52.7878 51.1522C52.0742 50.8211 50.8483 50.3854 50.0432 50.1936C49.2381 50.0019 47.8475 49.7579 46.9326 49.6534C45.7616 49.5139 44.7187 49.5139 43.2732 49.6534C42.157 49.7579 40.7664 49.9496 40.1626 50.1065C39.5588 50.2634 38.5342 50.6119 37.8755 50.9082C37.2168 51.2045 36.1921 51.7796 35.5883 52.1805C34.9845 52.5988 33.8135 53.627 32.9901 54.481C32.1484 55.335 31.4714 56.1367 31.4714 56.2587C31.4714 56.3633 31.5446 56.4678 31.6544 56.4678C31.7459 56.4678 32.3131 56.067 32.8803 55.579C33.4658 55.091 34.4905 54.359 35.1858 53.9756C35.8628 53.5747 36.4483 53.2785 36.5032 53.3307C36.5398 53.383 35.6249 54.1673 34.4539 55.0736C33.3011 55.9799 32.0569 56.9733 31.7093 57.2521C31.3799 57.531 31.142 57.7924 31.1969 57.8273C31.2518 57.8447 31.4714 57.7401 31.691 57.6007C31.9288 57.4613 32.2216 57.3393 32.3314 57.3393C32.4595 57.3393 32.5692 57.4264 32.5692 57.5135C32.5692 57.6007 31.5995 58.4198 30.4102 59.3261C29.2391 60.2149 28.1047 61.1212 27.9034 61.3304C27.7022 61.5395 27.5924 61.7138 27.6656 61.6964C27.757 61.6964 28.5072 61.2606 29.3672 60.7378C30.2272 60.2149 30.9774 59.7792 31.0506 59.7792C31.142 59.7792 30.9957 59.971 30.7395 60.2324C30.4833 60.4764 29.8612 60.9644 29.3672 61.3129C28.8549 61.6615 27.8668 62.3935 27.1715 62.9338C26.4579 63.474 25.5614 64.206 25.1588 64.5372C24.7563 64.8683 24.4818 65.2169 24.5733 65.304C24.6465 65.3737 24.9393 65.2692 25.2137 65.06C25.4882 64.8335 26.5494 64.1189 27.5741 63.4392C28.617 62.7769 29.4587 62.3063 29.4587 62.3935C29.4587 62.4806 28.3243 63.4915 26.9337 64.6243C25.5614 65.7397 23.8414 67.1166 23.1461 67.6569C22.4325 68.1971 21.4445 69.0511 20.9504 69.574C20.4381 70.0794 19.633 71.0031 19.1756 71.6305C18.7182 72.2579 18.0412 73.2688 17.6935 73.8962C17.3276 74.5236 16.7969 75.6565 16.5042 76.4233C16.1931 77.1902 15.8089 78.4799 15.6442 79.299C15.4063 80.4144 15.3515 81.2858 15.4063 82.8718C15.4795 84.4752 15.6076 85.1723 15.9004 85.8346C16.1199 86.3226 16.248 86.7235 16.1931 86.7583C16.1382 86.7757 15.8455 86.462 15.5527 86.0612C15.2417 85.6429 14.8208 84.8761 14.6013 84.3532C14.3085 83.6386 14.1987 82.8544 14.1255 81.3032C14.0706 79.7696 14.1255 78.7936 14.3634 77.6433C14.5281 76.7719 14.9123 75.4125 15.2234 74.5933C15.5161 73.7742 16.0651 72.6065 16.4127 71.9791C16.7786 71.3517 17.5471 70.184 18.1327 69.3648C18.7182 68.5457 20.2002 66.6983 21.4445 65.2343C22.6887 63.7878 25.1039 60.9644 26.8422 58.9601C28.5621 56.9733 30.6663 54.6902 31.508 53.9059C32.3497 53.1042 33.4841 52.1456 34.033 51.7448C34.5819 51.3613 35.5334 50.7862 36.1372 50.4551C36.741 50.1414 37.8023 49.6882 38.5159 49.4442C39.2112 49.2177 40.4188 48.9214 41.169 48.7994C41.9192 48.6948 42.6694 48.5728 42.8157 48.538C42.9621 48.5205 43.694 48.4857 44.4076 48.4682ZM25.7443 67.0991C25.8724 67.0991 25.9822 67.134 25.9822 67.1863C25.9822 67.2386 25.3052 67.9183 24.4635 68.7026C23.6401 69.5043 22.4874 70.7242 21.9019 71.4039C21.3347 72.1011 20.8955 72.7808 20.9138 72.8854C20.9504 73.0248 21.2981 72.7982 21.7006 72.3625C22.0849 71.9617 22.4691 71.6305 22.5423 71.6305C22.6338 71.6305 22.6887 71.7177 22.6887 71.8048C22.6887 71.8919 22.3776 72.3451 21.9934 72.7808C21.6091 73.2165 21.2249 73.5302 21.0785 73.4779C20.9687 73.4256 20.7309 73.5651 20.5845 73.8091C20.4381 74.0531 20.3466 74.3668 20.4015 74.5062C20.4564 74.6456 20.4198 74.8722 20.3283 74.9768C20.2368 75.0988 19.7794 75.9005 19.322 76.7719C18.8645 77.6433 18.4803 78.1836 18.4986 77.9919C18.4986 77.8001 18.6084 77.4516 18.7365 77.2076C18.8828 76.9636 18.9377 76.6499 18.8828 76.5105C18.7975 76.3362 18.834 76.2897 18.9926 76.371C19.139 76.4582 19.2305 76.371 19.2854 76.1096C19.322 75.9005 19.3952 75.5868 19.4684 75.4125C19.5232 75.2556 19.5232 75.1162 19.4318 75.1162C19.3586 75.1162 19.1207 75.4822 18.9011 75.9353C18.6816 76.4059 18.462 76.9462 18.4071 77.1553C18.3339 77.3819 18.1875 77.5562 18.0595 77.5562C17.8948 77.5562 17.8765 77.3819 17.9863 76.9113C18.0595 76.5453 18.3888 75.6565 18.7182 74.9419C19.0475 74.2273 19.7062 73.0945 20.1637 72.4148C20.6394 71.7351 21.664 70.5325 22.4508 69.7308C23.2376 68.9117 24.244 68.0054 24.7014 67.6917C25.1588 67.3606 25.6346 67.0991 25.7443 67.0991ZM23.9878 71.6305C24.061 71.6305 24.0793 71.6828 24.061 71.7525C24.0427 71.8397 23.6767 72.4148 23.2559 73.0596C22.8534 73.7219 22.2313 74.7676 21.8836 75.4125C21.5543 76.0747 21.0236 77.1902 20.7309 77.9047C20.4198 78.6193 20.0356 79.6824 19.8526 80.2575C19.6879 80.8327 19.3769 82.0004 18.8462 84.4404L18.9194 82.7847C18.9743 81.4601 19.1207 80.7455 19.6513 79.2118C20.0356 78.1661 20.6943 76.5976 21.1151 75.7262C21.5543 74.8548 22.1398 73.8265 22.4325 73.4431C22.7253 73.0422 23.1644 72.4671 23.4206 72.1708C23.6767 71.8745 23.9329 71.6305 23.9878 71.6305Z" fill="#BFBFBF"/>
<path fill-rule="evenodd" clip-rule="evenodd" d="M58.1673 17.2018C58.2222 17.254 57.9477 17.5329 57.5452 17.8292C57.1426 18.1255 56.0814 19.0666 55.1848 19.9206C54.3065 20.7571 53.5746 21.5763 53.5929 21.7157C53.6112 21.8551 53.4466 22.0643 53.2453 22.1863C53.044 22.2908 52.9342 22.4477 53.0257 22.5174C53.0989 22.6045 53.7393 22.0468 54.4529 21.2974C55.1665 20.5654 56.2644 19.6243 56.9231 19.206C57.5635 18.8052 58.1673 18.4566 58.2588 18.474C58.3503 18.474 57.3805 19.45 56.0997 20.6526C54.4163 22.2385 53.7759 22.9705 53.7027 23.354C53.6478 23.6328 53.5198 23.842 53.4283 23.7897C53.3368 23.7374 53.0989 23.842 52.9159 24.0162C52.7513 24.1731 52.3304 24.8005 52.0011 25.4105C51.69 26.0031 51.4522 26.6131 51.507 26.7525C51.5619 26.8919 51.4705 27.0488 51.3241 27.1011C51.1777 27.1533 51.0862 27.2928 51.1594 27.4148C51.2143 27.5193 51.1228 28.1293 50.9581 28.7567C50.7752 29.4016 50.6288 30.6913 50.6288 31.7544C50.6105 32.7653 50.5373 33.567 50.4641 33.5321C50.3726 33.4973 50.3177 32.6258 50.3177 31.5976C50.336 30.5519 50.4458 29.1227 50.5739 28.4082C50.702 27.6936 51.1228 26.2471 51.507 25.1839C51.873 24.1382 52.5317 22.6394 52.9342 21.89C53.3917 21.0708 54.1968 19.9903 54.8921 19.2932C55.6057 18.5612 56.4839 17.8815 57.0694 17.6026C57.6184 17.3237 58.1124 17.1495 58.1673 17.2018ZM32.1851 17.6026C32.3315 17.6026 31.874 18.0557 31.1787 18.6134C30.4834 19.1712 29.3856 20.2866 28.7452 21.1057C28.1048 21.9074 27.318 23.0751 26.9886 23.7025C26.6593 24.3299 26.0921 25.6894 25.7444 26.7525C25.3785 27.8156 24.9942 29.0182 24.8844 29.4539C24.7747 29.8896 24.61 30.9004 24.3904 33.201L24.3538 31.859C24.3538 31.1096 24.427 29.8896 24.5368 29.1576C24.6466 28.4082 24.9393 27.1359 25.1772 26.3168C25.4334 25.4976 26.0372 24.0511 26.5312 23.0925C27.1899 21.768 27.7388 21.0186 28.7635 19.9729C29.4954 19.2234 30.52 18.3695 31.014 18.108C31.5264 17.8292 32.0387 17.6026 32.1851 17.6026ZM31.8374 18.9969C31.9106 18.9969 31.4349 19.7289 30.7579 20.6177C30.0809 21.4891 29.3307 22.5348 29.0745 22.9182C28.8184 23.3017 28.3975 23.9291 28.1597 24.3125C27.9035 24.6959 27.5742 25.2885 27.4095 25.6196C27.2448 25.9508 26.8971 26.7002 26.6227 27.2753C26.3665 27.8505 26.0189 28.7219 25.8725 29.1925C25.7261 29.6804 25.4517 31.005 25.2504 32.1553C25.0491 33.3055 24.9393 34.2815 24.9759 34.3338C25.0125 34.3861 24.9759 34.665 24.8844 34.9438C24.7564 35.3098 24.7198 34.8392 24.7747 33.3753C24.8296 32.225 24.9759 30.7784 25.1406 30.151C25.287 29.5236 25.7078 28.2339 26.0555 27.2753C26.4031 26.3168 26.8423 25.1839 27.0435 24.7482C27.2448 24.3125 27.9035 23.3017 28.5256 22.4825C29.1294 21.6634 30.0992 20.548 30.6664 20.0077C31.2153 19.45 31.7459 18.9969 31.8374 18.9969ZM55.9899 21.6111C56.0997 21.6111 56.1729 21.6808 56.1729 21.7854C56.1729 21.89 55.6788 22.6045 55.0567 23.4062C54.4529 24.1905 53.4832 25.7416 52.8976 26.8396C52.3121 27.9376 51.6351 29.3842 51.4156 30.0639C51.1777 30.7436 50.9398 31.6324 50.8483 32.0681C50.7386 32.6433 50.7203 32.469 50.7935 31.4581C50.8483 30.6913 51.0496 29.4016 51.2692 28.5825C51.4705 27.7633 51.9645 26.4388 52.3487 25.6196C52.7513 24.8005 53.0989 24.1905 53.1538 24.2777C53.2087 24.3474 53.0806 24.7134 52.8793 25.0968C52.6781 25.4802 52.5134 25.8985 52.5134 26.0205C52.5134 26.1251 52.9342 25.5499 53.4649 24.7134C53.9955 23.8594 54.7457 22.8311 55.1299 22.3954C55.5142 21.9597 55.8984 21.6111 55.9899 21.6111ZM30.8494 22.1688C30.8677 22.2037 30.2273 23.5108 29.3856 25.0968C28.5622 26.6828 27.5924 28.8787 27.2265 29.9767C26.8423 31.0747 26.4946 32.225 26.458 32.5038C26.4214 32.7827 26.4031 32.4864 26.4214 31.8067C26.458 31.0573 26.6776 30.0464 26.9886 29.1925C27.2448 28.4256 27.8669 27.0139 28.3426 26.0554C28.8184 25.0968 29.5686 23.8245 30.0077 23.2145C30.4468 22.6045 30.8311 22.134 30.8494 22.1688ZM54.7091 25.6196C54.8189 25.6196 54.8921 25.7242 54.8921 25.8462C54.8921 25.9508 54.581 26.7176 54.1785 27.5368C53.7942 28.3559 53.1721 29.8722 52.8062 30.9353C52.4402 31.9984 51.9828 33.567 51.4339 35.9895V34.8567C51.4339 34.2292 51.5436 33.2358 51.69 32.6433C51.8364 32.0333 52.2572 30.7784 52.6232 29.8547C52.9891 28.9136 53.5746 27.5716 53.9223 26.8919C54.2517 26.1948 54.6176 25.6196 54.7091 25.6196ZM11.2163 36.2509C11.3444 36.2509 11.3444 36.3032 11.2529 36.3904C11.1432 36.4775 10.393 37.0352 9.56958 37.6278C8.7462 38.2203 7.61177 39.2312 7.08115 39.876C6.55052 40.5209 5.91012 41.3226 5.65395 41.6537C5.41609 41.9849 4.86717 43.0131 4.44633 43.9194C4.0072 44.8257 3.65955 45.4008 3.65955 45.1917C3.65955 44.9651 3.86082 44.1808 4.11698 43.4488C4.35484 42.6994 4.86717 41.584 5.25141 40.974C5.63566 40.364 6.40414 39.388 6.97136 38.7955C7.72155 38.0112 8.39855 37.5406 9.49639 37.0004C10.3381 36.5821 11.1066 36.2509 11.2163 36.2509ZM78.8981 36.5995C79.1726 36.5995 78.6786 37.1398 77.1599 38.5689C76.0072 39.632 74.6166 41.1134 74.0676 41.828C73.5187 42.5426 72.8051 43.6231 72.4758 44.2331C72.1647 44.8257 71.9086 45.4357 71.9086 45.5751C71.9086 45.732 72.0183 45.8017 72.183 45.7494C72.3294 45.6971 72.5124 45.488 72.5673 45.2788C72.6405 45.0523 72.9698 44.4423 73.3358 43.9194C73.6834 43.3966 74.3055 42.5251 74.7081 42.0023C75.1106 41.4794 76.0804 40.4512 76.8306 39.7192C77.599 39.0046 78.4407 38.2552 78.7335 38.0635C79.0079 37.8892 79.3007 37.7846 79.3739 37.8543C79.4471 37.9415 78.8433 38.6038 78.0382 39.3532C77.2331 40.0852 76.1901 41.1309 75.6961 41.6537C75.2204 42.1766 74.8361 42.6646 74.8361 42.7517C74.8361 42.8214 74.6532 43.0654 74.4336 43.292C74.1957 43.5186 73.6651 44.2854 73.2443 44.9825C72.8051 45.6971 72.2562 46.7428 72.0001 47.3179C71.7622 47.8931 71.5426 48.2416 71.5426 48.1022C71.5426 47.9628 71.6707 47.4922 71.8171 47.0565C71.9635 46.6208 72.0915 46.22 72.0915 46.1502C72.0915 46.0631 71.9269 46.0805 71.7256 46.1851C71.5243 46.2897 71.3962 46.4117 71.4328 46.4988C71.4694 46.5685 71.4328 46.9694 71.3413 47.4051C71.2499 47.8408 71.1218 48.5031 71.0669 48.8865C71.012 49.2699 70.9022 49.6185 70.8656 49.6708C70.8107 49.7231 70.8107 49.1305 70.8839 48.3636C70.9388 47.5968 71.1584 46.342 71.3596 45.5751C71.5609 44.8083 72.1281 43.3966 72.6222 42.438C73.2626 41.218 73.8664 40.3466 74.6898 39.4926C75.3119 38.8303 76.4463 37.9241 77.1965 37.4535C77.9284 36.9829 78.6969 36.5995 78.8981 36.5995ZM10.4662 37.8195C10.5576 37.8195 10.2466 38.2378 9.77085 38.7432C9.29512 39.2312 8.52663 40.1897 8.0509 40.8695C7.57517 41.5492 6.87988 42.6297 6.53223 43.3094C6.16628 43.9891 5.70885 45 5.48928 45.5751C5.28801 46.1502 4.94036 47.3005 4.75739 48.1545C4.55611 48.9911 4.39144 50.0368 4.35484 51.3265L4.15357 50.7165C4.0072 50.2459 4.02549 49.6708 4.24506 48.2765C4.44633 47.0914 4.79398 45.8017 5.28801 44.6165C5.69055 43.6057 6.49563 42.0894 7.09944 41.218C7.70325 40.364 8.65472 39.2312 9.25853 38.7432C9.84404 38.2378 10.393 37.8195 10.4662 37.8195ZM77.4161 40.9566C77.5076 40.9566 77.5807 41.0089 77.5807 41.096C77.599 41.1657 76.9403 42.072 76.1353 43.1351C75.3302 44.1983 74.2872 45.7668 73.8115 46.6208C73.3358 47.4748 72.7136 48.9388 72.4392 49.8451C72.183 50.7513 71.8537 52.0759 71.7439 52.773C71.6341 53.4527 71.4877 54.0279 71.4145 54.0279C71.3231 54.0279 71.3231 53.2959 71.3962 52.4244C71.4694 51.5356 71.7073 50.2285 71.9086 49.5488C72.1098 48.8516 72.4941 47.8234 72.7502 47.2831C73.0064 46.7254 73.5553 45.7668 73.9579 45.1394C74.3787 44.512 75.2753 43.3268 75.9706 42.4903C76.6659 41.6363 77.3246 40.9566 77.4161 40.9566Z" fill="black"/>
</svg>
