<svg width="58" height="94" viewBox="0 0 58 94" fill="none" xmlns="http://www.w3.org/2000/svg">
<path d="M42.0039 56.0991C40.422 56.0991 38.8715 56.3595 37.3845 56.8192V22.7191C37.3845 15.3966 31.278 2.4982 31.025 1.94677C30.9775 1.85486 30.8984 1.77827 30.8352 1.70168C30.756 1.57898 30.6769 1.44112 30.5662 1.3339C30.4555 1.21135 30.313 1.13477 30.1707 1.05818C30.0915 1.01222 30.0284 0.920319 29.9334 0.889683C29.9017 0.874366 29.8859 0.874365 29.8544 0.874365C29.696 0.813095 29.5379 0.797777 29.3797 0.767142C29.2532 0.751824 29.1265 0.705872 29 0.705872C28.8735 0.705872 28.7469 0.736507 28.6204 0.767142C28.4622 0.797777 28.2882 0.813095 28.1457 0.874365C28.1142 0.889683 28.0984 0.889683 28.0667 0.889683C27.9717 0.935636 27.9085 1.01222 27.8135 1.05818C27.6712 1.15008 27.5445 1.22667 27.418 1.3339C27.3074 1.44112 27.2282 1.57898 27.1334 1.70168C27.07 1.79359 26.9909 1.85486 26.9435 1.94677C26.6904 2.4982 20.5839 15.3966 20.5839 22.7191V56.8192C19.0969 56.3595 17.5465 56.0991 15.9645 56.0991C7.53252 56.0991 0.666687 62.7476 0.666687 70.9126V78.1277C0.666687 86.2928 7.53252 92.9412 15.9645 92.9412C21.4855 92.9412 26.3107 90.0919 29 85.8331C31.6894 90.0919 36.5302 92.9412 42.0355 92.9412C50.4675 92.9412 57.3334 86.2928 57.3334 78.1277V70.9126C57.3017 62.7476 50.4359 56.0991 42.0039 56.0991ZM15.9329 88.56C9.98452 88.56 5.15952 83.8723 5.15952 78.1277V70.9126C5.15952 65.1526 10.0004 60.4803 15.9329 60.4803C17.9579 60.4803 19.9194 61.0166 21.628 62.0582C21.6754 62.0888 21.7387 62.0888 21.7862 62.1194C21.9285 62.1807 22.0552 62.2266 22.2134 62.2726C22.3715 62.3186 22.5139 62.3492 22.6562 62.3645C22.7195 62.3645 22.767 62.3951 22.8145 62.3951C22.8935 62.3951 22.9727 62.3645 23.0517 62.3492C23.21 62.3339 23.3682 62.3032 23.5264 62.2573C23.6529 62.2113 23.7637 62.1654 23.8744 62.1041C24.0167 62.0275 24.1434 61.9509 24.2699 61.8437C24.3807 61.7518 24.4597 61.6599 24.5389 61.568C24.602 61.4914 24.6812 61.4454 24.7287 61.3689C24.7604 61.3076 24.7762 61.2463 24.792 61.1851C24.8552 61.0778 24.8869 60.9553 24.9185 60.8481C24.966 60.6796 25.0134 60.5264 25.0292 60.3577C25.0292 60.3118 25.0609 60.2658 25.0609 60.2199V22.7191C25.0609 18.8434 27.244 12.7312 28.9684 8.50321C30.6927 12.7312 32.8759 18.8434 32.8759 22.7191V36.2764L27.3074 42.1129C26.9277 42.5112 26.7062 43.0475 26.7062 43.5989V70.2538C26.7062 70.3765 26.7537 70.4684 26.7694 70.5756C26.7537 70.6828 26.7062 70.79 26.7062 70.8973V78.1124C26.7062 83.8876 21.881 88.56 15.9329 88.56ZM52.793 78.1277C52.793 83.8876 47.9522 88.56 42.0197 88.56C36.0715 88.56 31.2307 83.8723 31.2307 78.1277V70.9126C31.2307 70.79 31.1832 70.6981 31.1674 70.5909C31.1832 70.4837 31.2307 70.3763 31.2307 70.2691V44.4414L32.8759 42.7103V60.1739C32.8759 60.2352 32.9075 60.2811 32.9075 60.3271C32.9234 60.4803 32.955 60.6183 33.0025 60.7562C33.0499 60.894 33.0815 61.0319 33.1607 61.1697C33.1924 61.2157 33.1924 61.277 33.2239 61.3229C33.2714 61.3995 33.3347 61.4301 33.3979 61.4914C33.4929 61.6139 33.6035 61.7212 33.7144 61.8131C33.825 61.905 33.9359 61.9662 34.0465 62.0428C34.1732 62.1194 34.2997 62.1807 34.4579 62.2113C34.6002 62.2573 34.7427 62.2726 34.885 62.2879C34.9799 62.3032 35.059 62.3339 35.154 62.3339C35.2172 62.3339 35.2647 62.3032 35.328 62.3032C35.4704 62.2879 35.5969 62.2573 35.7394 62.2266C35.8975 62.1807 36.0399 62.1347 36.1822 62.0582C36.2297 62.0275 36.293 62.0275 36.3404 62.0122C38.049 60.9859 40.0107 60.4496 42.0355 60.4496C47.9839 60.4496 52.8089 65.1373 52.8089 70.8819V78.1277H52.793Z" fill="#9C9C9C" stroke="black" stroke-miterlimit="10"/>
<path d="M42.0032 62.3202C37.099 62.3202 33.1282 66.1806 33.1282 70.9141V78.1293C33.1282 82.8628 37.1148 86.7232 42.0032 86.7232C46.9073 86.7232 50.878 82.8628 50.878 78.1293V70.9141C50.8938 66.1653 46.9073 62.3202 42.0032 62.3202ZM46.3695 78.1293C46.3695 80.4578 44.4078 82.3573 42.0032 82.3573C39.5985 82.3573 37.6368 80.4578 37.6368 78.1293V70.9141C37.6368 68.5856 39.5985 66.686 42.0032 66.686C44.4078 66.686 46.3695 68.5856 46.3695 70.9141V78.1293Z" fill="#9C9C9C" stroke="black" stroke-miterlimit="10"/>
<path d="M15.9329 62.3202C11.0287 62.3202 7.05786 66.1806 7.05786 70.9141V78.1293C7.05786 82.8628 11.0445 86.7232 15.9329 86.7232C20.837 86.7232 24.8077 82.8628 24.8077 78.1293V70.9141C24.8077 66.1653 20.8212 62.3202 15.9329 62.3202ZM20.299 78.1293C20.299 80.4578 18.3374 82.3573 15.9329 82.3573C13.5282 82.3573 11.5665 80.4578 11.5665 78.1293V70.9141C11.5665 68.5856 13.5282 66.686 15.9329 66.686C18.3374 66.686 20.299 68.5856 20.299 70.9141V78.1293Z" fill="#9C9C9C" stroke="black" stroke-miterlimit="10"/>
<path d="M28.9677 36.9499C29.5847 36.9499 30.1383 36.7354 30.5655 36.3219C30.9768 35.9083 31.2142 35.3568 31.2142 34.7746C31.2142 34.2079 30.961 33.6411 30.5655 33.2427C29.727 32.4309 28.2242 32.4155 27.3542 33.2427C26.9428 33.6411 26.7055 34.2079 26.7055 34.7746C26.7055 35.3568 26.9587 35.9083 27.3542 36.3219C27.797 36.7354 28.3823 36.9499 28.9677 36.9499Z" fill="#9C9C9C" stroke="black" stroke-miterlimit="10"/>
</svg>
