<svg width="27" height="27" viewBox="0 0 27 27" fill="none" xmlns="http://www.w3.org/2000/svg">
<path d="M8.57449 13.5792C9.6054 15.7081 11.3269 17.4251 13.4584 18.4505C13.6156 18.525 13.7895 18.5572 13.963 18.544C14.1365 18.5309 14.3035 18.4728 14.4477 18.3754L17.5784 16.2841C17.7167 16.1903 17.8766 16.133 18.043 16.1177C18.2094 16.1024 18.377 16.1295 18.5301 16.1964L24.3908 18.7135C24.5911 18.7969 24.7585 18.9438 24.8671 19.1316C24.9757 19.3194 25.0196 19.5377 24.9919 19.7529C24.8062 21.2027 24.0985 22.5352 23.0014 23.501C21.9042 24.4668 20.4927 24.9997 19.0311 25C14.5141 25 10.1822 23.2057 6.98828 20.0117C3.79434 16.8178 2 12.4859 2 7.96893C2.00033 6.50727 2.53324 5.0958 3.49902 3.99864C4.46479 2.90148 5.79725 2.19382 7.24707 2.00806C7.46226 1.98042 7.68057 2.02429 7.86838 2.1329C8.0562 2.24152 8.2031 2.40886 8.28647 2.60916L10.8036 8.48237C10.869 8.63308 10.8964 8.79758 10.8833 8.96136C10.8702 9.12515 10.817 9.2832 10.7284 9.42158L8.63711 12.6024C8.544 12.7463 8.48935 12.9116 8.47839 13.0826C8.46743 13.2536 8.50052 13.4246 8.57449 13.5792Z" stroke="#BFBFBF" stroke-width="2.00365" stroke-linecap="round" stroke-linejoin="round"/>
</svg>
