<svg width="25" height="25" viewBox="0 0 25 25" fill="none" xmlns="http://www.w3.org/2000/svg">
<g clip-path="url(#clip0_82_17)">
<path d="M19.7917 0H5.20833C3.82751 0.00165402 2.50371 0.550919 1.52731 1.52731C0.550919 2.50371 0.00165402 3.82751 0 5.20833L0 19.7917C0.00165402 21.1725 0.550919 22.4963 1.52731 23.4727C2.50371 24.4491 3.82751 24.9983 5.20833 25H19.7917C21.1725 24.9983 22.4963 24.4491 23.4727 23.4727C24.4491 22.4963 24.9983 21.1725 25 19.7917V5.20833C24.9983 3.82751 24.4491 2.50371 23.4727 1.52731C22.4963 0.550919 21.1725 0.00165402 19.7917 0ZM22.9167 19.7917C22.9167 20.6205 22.5874 21.4153 22.0014 22.0014C21.4153 22.5874 20.6205 22.9167 19.7917 22.9167H5.20833C4.37953 22.9167 3.58468 22.5874 2.99862 22.0014C2.41257 21.4153 2.08333 20.6205 2.08333 19.7917V5.20833C2.08333 4.37953 2.41257 3.58468 2.99862 2.99862C3.58468 2.41257 4.37953 2.08333 5.20833 2.08333H19.7917C20.6205 2.08333 21.4153 2.41257 22.0014 2.99862C22.5874 3.58468 22.9167 4.37953 22.9167 5.20833V19.7917Z" fill="#BFBFBF"/>
<path d="M7.29163 10.4167C7.90969 10.4167 8.51388 10.2334 9.02778 9.89C9.54169 9.54662 9.94223 9.05856 10.1787 8.48754C10.4153 7.91652 10.4772 7.28819 10.3566 6.682C10.236 6.07581 9.93837 5.51899 9.50133 5.08195C9.0643 4.64491 8.50747 4.34728 7.90128 4.2267C7.29509 4.10613 6.66676 4.16801 6.09574 4.40453C5.52472 4.64106 5.03666 5.0416 4.69328 5.5555C4.3499 6.0694 4.16663 6.67359 4.16663 7.29166C4.16663 8.12046 4.49587 8.91532 5.08192 9.50137C5.66797 10.0874 6.46282 10.4167 7.29163 10.4167ZM7.29163 6.24999C7.49765 6.24999 7.69904 6.31108 7.87034 6.42554C8.04165 6.54 8.17516 6.70269 8.254 6.89303C8.33284 7.08337 8.35347 7.29281 8.31328 7.49488C8.27308 7.69694 8.17387 7.88255 8.0282 8.02823C7.88252 8.17391 7.69691 8.27312 7.49484 8.31331C7.29278 8.3535 7.08334 8.33287 6.893 8.25403C6.70266 8.17519 6.53997 8.04168 6.42551 7.87038C6.31105 7.69908 6.24996 7.49768 6.24996 7.29166C6.24996 7.01539 6.35971 6.75044 6.55506 6.55509C6.75041 6.35974 7.01536 6.24999 7.29163 6.24999Z" fill="#BFBFBF"/>
<path d="M17.4031 10.7219C17.3041 10.6186 17.184 10.5379 17.051 10.4853C16.918 10.4326 16.7752 10.4092 16.6323 10.4167C16.4897 10.4217 16.3496 10.4558 16.2206 10.5169C16.0917 10.578 15.9765 10.6647 15.8823 10.7719L12.726 14.375L10.1115 11.7594C9.91612 11.5641 9.65122 11.4544 9.375 11.4544C9.09879 11.4544 8.83389 11.5641 8.63855 11.7594L4.47188 15.9261C4.37239 16.0221 4.29303 16.1371 4.23844 16.2642C4.18385 16.3913 4.15511 16.5279 4.15391 16.6663C4.15271 16.8046 4.17906 16.9417 4.23144 17.0698C4.28381 17.1978 4.36116 17.3141 4.45897 17.4119C4.55677 17.5097 4.67308 17.587 4.80109 17.6394C4.92911 17.6918 5.06628 17.7181 5.20459 17.7169C5.3429 17.7157 5.47959 17.687 5.60667 17.6324C5.73376 17.5778 5.8487 17.4985 5.94479 17.399L9.375 13.9729L11.3542 15.9521L8.59063 19.1052C8.40857 19.3132 8.3166 19.5851 8.33497 19.8609C8.35333 20.1367 8.48052 20.394 8.68854 20.5761C8.89657 20.7581 9.16841 20.8501 9.44424 20.8317C9.72008 20.8133 9.97732 20.6862 10.1594 20.4781L13.5115 16.6469H13.5177L13.525 16.6354L16.7177 12.9896L19.0552 15.3271C19.2517 15.5168 19.5148 15.6218 19.7879 15.6195C20.061 15.6171 20.3223 15.5075 20.5154 15.3144C20.7086 15.1213 20.8181 14.86 20.8205 14.5869C20.8229 14.3138 20.7179 14.0506 20.5281 13.8542L17.4031 10.7219Z" fill="#BFBFBF"/>
</g>
<defs>
<clipPath id="clip0_82_17">
<rect width="25" height="25" fill="white"/>
</clipPath>
</defs>
</svg>
