<svg width="25" height="25" viewBox="0 0 25 25" fill="none" xmlns="http://www.w3.org/2000/svg">
<path d="M18.75 0.892853H6.25003C3.29136 0.892853 0.892883 3.29133 0.892883 6.25V18.75C0.892883 21.7087 3.29136 24.1071 6.25003 24.1071H18.75C21.7087 24.1071 24.1072 21.7087 24.1072 18.75V6.25C24.1072 3.29133 21.7087 0.892853 18.75 0.892853Z" stroke="#BFBFBF" stroke-width="2" stroke-linecap="round" stroke-linejoin="round"/>
<path d="M9.82147 18.75V6.25H13.3929C14.3401 6.25 15.2485 6.62627 15.9183 7.29605C16.5881 7.96582 16.9643 8.87423 16.9643 9.82143C16.9643 10.7686 16.5881 11.677 15.9183 12.3468C15.2485 13.0166 14.3401 13.3929 13.3929 13.3929H9.82147" stroke="#BFBFBF" stroke-linecap="round" stroke-linejoin="round"/>
</svg>
