<svg width="31" height="31" viewBox="0 0 31 31" fill="none" xmlns="http://www.w3.org/2000/svg">
<path d="M17.4578 0.918227C18.5523 0.914027 19.6469 0.925028 20.7411 0.951226L21.0321 0.961726C21.3681 0.973726 21.6996 0.988725 22.1 1.00672C23.696 1.08172 24.7849 1.33371 25.7404 1.7042C26.7303 2.08519 27.5643 2.60117 28.3982 3.43514C29.1607 4.18453 29.7509 5.09101 30.1276 6.09155C30.4981 7.04702 30.7501 8.13748 30.8251 9.73343C30.8431 10.1324 30.8581 10.4654 30.8701 10.8014L30.8791 11.0924C30.9057 12.1861 30.9173 13.2802 30.9136 14.3743L30.9151 15.4932V17.4582C30.9188 18.5527 30.9073 19.6473 30.8806 20.7416L30.8716 21.0325C30.8596 21.3685 30.8446 21.7 30.8266 22.1005C30.7516 23.6965 30.4966 24.7854 30.1276 25.7409C29.7521 26.7425 29.1618 27.6497 28.3982 28.3988C27.6482 29.1612 26.7413 29.7514 25.7404 30.1282C24.7849 30.4987 23.696 30.7507 22.1 30.8257C21.6996 30.8437 21.3681 30.8587 21.0321 30.8707L20.7411 30.8797C19.6469 30.9064 18.5523 30.9179 17.4578 30.9142L16.3388 30.9157H14.3754C13.2809 30.9194 12.1863 30.9079 11.0921 30.8812L10.8011 30.8722C10.4451 30.8593 10.0891 30.8443 9.73318 30.8272C8.13727 30.7522 7.04832 30.4972 6.09137 30.1282C5.09045 29.7523 4.18383 29.162 3.43501 28.3988C2.67161 27.6492 2.08091 26.7422 1.7041 25.7409C1.33362 24.7854 1.08163 23.6965 1.00663 22.1005C0.989927 21.7446 0.974928 21.3886 0.961635 21.0325L0.954135 20.7416C0.926482 19.6473 0.913981 18.5527 0.916637 17.4582V14.3743C0.912451 13.2802 0.923451 12.1861 0.949635 11.0924L0.960135 10.8014C0.972134 10.4654 0.987133 10.1324 1.00513 9.73343C1.08013 8.13598 1.33212 7.04852 1.7026 6.09155C2.07964 5.09052 2.67149 4.18428 3.43651 3.43664C4.18481 2.6728 5.09086 2.08155 6.09137 1.7042C7.04832 1.33371 8.13577 1.08172 9.73318 1.00672L10.8011 0.961726L11.0921 0.954226C12.1858 0.926587 13.2799 0.914086 14.3739 0.916728L17.4578 0.918227ZM15.9159 8.41797C14.9222 8.40392 13.9356 8.5875 13.0135 8.95806C12.0914 9.32861 11.2521 9.87874 10.5444 10.5765C9.83674 11.2742 9.27481 12.1057 8.89126 13.0225C8.50771 13.9393 8.31019 14.9232 8.31019 15.917C8.31019 16.9108 8.50771 17.8947 8.89126 18.8115C9.27481 19.7283 9.83674 20.5597 10.5444 21.2575C11.2521 21.9552 12.0914 22.5053 13.0135 22.8759C13.9356 23.2464 14.9222 23.43 15.9159 23.416C17.9049 23.416 19.8124 22.6258 21.2189 21.2193C22.6253 19.8129 23.4155 17.9053 23.4155 15.9162C23.4155 13.9272 22.6253 12.0196 21.2189 10.6131C19.8124 9.20662 17.9049 8.41797 15.9159 8.41797ZM15.9159 11.4179C16.5136 11.4069 17.1075 11.5151 17.663 11.7362C18.2184 11.9573 18.7242 12.2869 19.1509 12.7056C19.5775 13.1244 19.9164 13.624 20.1478 14.1753C20.3792 14.7265 20.4984 15.3184 20.4985 15.9162C20.4986 16.514 20.3796 17.1059 20.1484 17.6572C19.9172 18.2086 19.5784 18.7083 19.1519 19.1272C18.7254 19.5461 18.2197 19.8759 17.6644 20.0972C17.109 20.3185 16.5151 20.4269 15.9174 20.4161C14.724 20.4161 13.5794 19.942 12.7355 19.0981C11.8917 18.2542 11.4176 17.1097 11.4176 15.9162C11.4176 14.7228 11.8917 13.5782 12.7355 12.7343C13.5794 11.8905 14.724 11.4164 15.9174 11.4164L15.9159 11.4179ZM23.7905 6.16805C23.3066 6.18742 22.849 6.39327 22.5134 6.74249C22.1779 7.09171 21.9905 7.5572 21.9905 8.04148C21.9905 8.52577 22.1779 8.99126 22.5134 9.34048C22.849 9.6897 23.3066 9.89555 23.7905 9.91492C24.2877 9.91492 24.7646 9.71738 25.1162 9.36577C25.4678 9.01415 25.6654 8.53725 25.6654 8.03999C25.6654 7.54272 25.4678 7.06582 25.1162 6.71421C24.7646 6.36259 24.2877 6.16505 23.7905 6.16505V6.16805Z" fill="#BFBFBF"/>
</svg>
