<svg width="100" height="100" viewBox="0 0 100 100" fill="none" xmlns="http://www.w3.org/2000/svg">
<path d="M50 100C77.6142 100 100 77.6142 100 50C100 22.3858 77.6142 0 50 0C22.3858 0 0 22.3858 0 50C0 77.6142 22.3858 100 50 100Z" fill="#3B5998"/>
<path d="M68.75 100V62.5H81.25L84.375 46.875H68.75V40.625C68.75 34.375 71.8813 31.25 78.125 31.25H84.375V15.625C81.25 15.625 77.375 15.625 71.875 15.625C60.3906 15.625 53.125 24.6281 53.125 37.5V46.875H40.625V62.5H53.125V100H68.75Z" fill="white"/>
</svg>
