<svg width="100" height="100" viewBox="0 0 100 100" fill="none" xmlns="http://www.w3.org/2000/svg">
<g clip-path="url(#clip0_7_250)">
<path d="M50 0C77.5 0 100 22.5 100 50C100 77.5 77.5 100 50 100C22.5 100 0 77.5 0 50C0 22.5 22.5 0 50 0Z" fill="url(#paint0_linear_7_250)"/>
<path d="M64.6875 18.75H35C25.9375 18.75 18.75 26.25 18.75 35.625V64.375C18.75 73.4375 25.9375 80.9375 35.3125 81.25H65C74.0625 81.25 81.5625 73.75 81.5625 64.375V35.625C81.25 26.25 74.0625 18.75 64.6875 18.75ZM75.625 64.0625C75.625 70.3125 70.625 75.625 64.0625 75.625H35.625C29.375 75.625 24.0625 70.3125 24.375 64.0625V35.9375C24.375 29.6875 29.375 24.375 35.625 24.375H64.0625C70.3125 24.375 75.625 29.6875 75.625 35.9375V64.0625Z" fill="white"/>
<path d="M50.0001 34.0626C41.2501 33.7501 33.7501 40.9376 33.7501 49.6876C33.4376 58.4376 40.6251 65.9376 49.3751 65.9376C58.1251 65.9376 65.6251 59.0626 65.6251 50.3126V50.0001C65.9376 41.2501 58.7501 34.0626 50.0001 34.0626ZM50.0001 60.3126C44.3751 60.3126 39.6876 55.9376 39.3751 50.3126C39.3751 44.6876 43.7501 40.0001 49.3751 39.6876C55.0001 39.3751 59.6876 44.0626 60.0001 49.6876V50.0001C60.3126 55.6251 55.6251 60.3126 50.0001 60.3126Z" fill="white"/>
<path d="M66.5625 29.375C68.4375 29.375 70 30.9375 70 33.125C70 35.3125 68.4375 36.875 66.5625 36.875C64.6875 36.875 63.125 35.3125 63.125 33.125C63.125 30.9375 64.6875 29.375 66.5625 29.375Z" fill="white"/>
</g>
<defs>
<linearGradient id="paint0_linear_7_250" x1="24.9915" y1="93.3114" x2="75" y2="6.69437" gradientUnits="userSpaceOnUse">
<stop stop-color="#FEC053"/>
<stop offset="0.327" stop-color="#F2203E"/>
<stop offset="0.648" stop-color="#B729A8"/>
<stop offset="1" stop-color="#5342D6"/>
</linearGradient>
<clipPath id="clip0_7_250">
<rect width="100" height="100" fill="white"/>
</clipPath>
</defs>
</svg>
