<svg width="100" height="100" viewBox="0 0 100 100" fill="none" xmlns="http://www.w3.org/2000/svg">
<g clip-path="url(#clip0_7_256)">
<path d="M50 0C22.3857 0 0 22.3857 0 50C0 77.6143 22.3857 100 50 100C77.6143 100 100 77.6143 100 50C100 22.3857 77.6143 0 50 0ZM75.9881 31.6281L67.1076 74.0234C67.0002 74.5362 66.7656 75.0138 66.4254 75.4122C66.0853 75.8107 65.6504 76.1173 65.1608 76.3038C64.6713 76.4903 64.1427 76.5508 63.6236 76.4798C63.1045 76.4087 62.6117 76.2083 62.1902 75.8971L49.273 66.3539L41.4473 73.7367C41.3448 73.8334 41.2242 73.9086 41.0923 73.9581C40.9605 74.0076 40.8201 74.0304 40.6794 74.025C40.5386 74.0197 40.4004 73.9864 40.2727 73.927C40.145 73.8676 40.0304 73.7834 39.9355 73.6793L39.7674 73.4945L41.1271 60.3354L65.6357 37.9426C65.7569 37.832 65.8323 37.6801 65.847 37.5167C65.8616 37.3533 65.8145 37.1903 65.715 37.0599C65.6154 36.9296 65.4706 36.8412 65.3091 36.8124C65.1476 36.7835 64.9811 36.8163 64.8426 36.9041L33.499 56.742L20 52.2084C19.6411 52.0878 19.3282 51.8591 19.1044 51.5537C18.8806 51.2483 18.7568 50.8811 18.75 50.5025C18.7431 50.1239 18.8536 49.7525 19.0662 49.4392C19.2788 49.1259 19.5832 48.886 19.9375 48.7525L72.7539 28.8563C73.1613 28.7029 73.6025 28.6619 74.0312 28.7374C74.4599 28.8129 74.8604 29.0022 75.191 29.2855C75.5215 29.5687 75.7699 29.9356 75.9101 30.3477C76.0503 30.7598 76.0772 31.202 75.9881 31.6281Z" fill="url(#paint0_linear_7_256)"/>
</g>
<defs>
<linearGradient id="paint0_linear_7_256" x1="3.6576e-07" y1="100" x2="98.183" y2="1.81699" gradientUnits="userSpaceOnUse">
<stop stop-color="#2081C7"/>
<stop offset="1" stop-color="#38AFE2"/>
</linearGradient>
<clipPath id="clip0_7_256">
<rect width="100" height="100" fill="white"/>
</clipPath>
</defs>
</svg>
